# xmcd CD database file
#
# Track frame offsets:
#	150
#	13369
#	60042
#	91165
#	110188
#	148053
#	175308
#	212339
#	250196
#
# Disc length: 3720 seconds
#
# Revision: 0
# Processed by: cddbd v1.5.2PL0 Copyright (c) Steve Scherf et al.
# Submitted via: CDex 1.51
#
DISCID=770e8609
DTITLE=Lehigh Valley Youth Jazz Ensemble - Jive at Five
DYEAR=2003
DGENRE=Jazz
TTITLE0=My Heart Stood Still
TTITLE1=Fables of Fabus
TTITLE2=Jive at Five
TTITLE3=To You
TTITLE4=Indian Lady
TTITLE5=9 1/2 Months
TTITLE6=Minuano (Six-Eight)
TTITLE7=Central Park North
TTITLE8=The Last Dive
EXTD=YEAR: 2003
EXTT0=
EXTT1=
EXTT2=
EXTT3=
EXTT4=
EXTT5=
EXTT6=
EXTT7=
EXTT8=
PLAYORDER=
